<svg width="1340" height="512" viewBox="0 0 1340 512" fill="none" xmlns="http://www.w3.org/2000/svg">
<g clip-path="url(#clip0_49_4)">
<path d="M218.597 38.9449V131.449L31.6858 138.491V145.343L239.154 152.006V131.449V38.9449H218.597Z" fill="#CFB346"/>
<path d="M112.77 165.14V185.696H218.978L228.496 489.044H233.825L239.535 165.14H112.77Z" fill="#CFB346"/>
<path d="M284.457 22.9565V131.449L471.368 138.491V145.343L263.9 152.006V131.449V22.9565H284.457Z" fill="#CFB346"/>
<path d="M367.443 165.139V185.696H284.075L274.557 409.102H269.229L263.519 165.139H367.443Z" fill="#CFB346"/>
<path d="M316.371 176.989C316.371 176.989 321.823 179.269 331.295 182.684C336.032 184.369 341.808 186.281 348.359 188.06C354.882 189.737 362.374 191.438 369.658 191.431C373.235 191.482 376.741 190.977 379.098 189.842C379.703 189.579 380.18 189.237 380.639 188.953C380.85 188.789 381.067 188.645 381.238 188.476C381.332 188.396 381.427 188.323 381.501 188.232L381.622 188.106L381.683 188.047L381.715 188.017C381.576 188.108 382.072 187.77 381.412 188.216C382.828 187.071 381.93 187.526 382.348 187.042C382.485 186.717 382.588 186.388 382.681 186.025C382.837 185.278 382.99 184.333 383.054 183.063C383.09 181.8 383.022 180.246 382.798 178.538C382.318 175.098 381.274 171.065 379.737 166.942C378.266 162.787 376.293 158.518 373.936 154.348C371.643 150.138 368.954 146.006 365.967 142.089C360.014 134.262 352.662 127.291 345.01 122.606L344.832 122.496L344.741 122.442C345.554 122.88 344.899 122.526 345.049 122.608L344.574 122.35L343.626 121.836L342.676 121.322L342.201 121.064C342.053 120.984 342.007 120.982 341.906 120.936C341.196 120.651 340.584 120.288 339.652 119.986C337.935 119.317 336.327 118.931 334.86 118.817C331.927 118.579 329.372 118.986 326.389 120.598C323.447 122.204 320.377 125.018 317.638 128.467C316.263 130.194 314.968 132.078 313.737 134.061C312.465 136.073 311.467 138.021 309.85 140.862C307.319 145.319 304.56 150.255 301.842 154.8C299.103 159.404 296.319 163.874 293.487 168.171C287.811 176.756 281.984 184.721 275.63 191.484C269.244 198.199 262.385 203.761 255.265 207.518C248.265 211.392 240.782 213.139 234.727 212.68C228.606 212.221 224.49 209.775 222.201 207.975C221.034 207.057 220.239 206.276 219.744 205.707C219.243 205.161 218.985 204.88 218.985 204.88L219.287 204.394C219.287 204.394 220.79 204.78 223.419 205.088C226.05 205.33 229.798 205.364 233.77 203.761C237.769 202.292 241.963 199.277 246.348 194.958C250.699 190.6 255.158 184.904 259.797 178.348C264.47 171.816 269.379 164.407 274.127 156.177C276.505 152.063 278.848 147.756 281.164 143.284C283.517 138.761 285.68 134.291 288.185 129.202C289.138 127.297 290.472 124.321 291.966 121.599C293.459 118.83 295.127 116.044 297.048 113.296C300.896 107.837 305.727 102.356 312.447 97.9747C315.8 95.8072 319.641 93.9799 323.794 92.8173C327.937 91.6273 332.352 91.2139 336.589 91.4309C340.849 91.6228 344.912 92.4884 348.61 93.7309C350.431 94.2746 352.429 95.1311 354.364 95.9785L355.054 96.2868L355.538 96.5266L356.504 97.0063L357.47 97.4859L357.954 97.7258L358.932 98.258C365.09 101.677 370.569 105.738 375.434 110.233C380.322 114.705 384.689 119.523 388.625 124.577C392.558 129.632 396.068 134.919 399.143 140.435C402.139 145.995 404.723 151.753 406.714 157.824C408.615 163.922 409.958 170.336 409.981 177.284C409.978 180.76 409.668 184.374 408.72 188.097C407.815 191.804 406.232 195.65 403.786 199.115C402.562 200.844 401.153 202.463 399.597 203.898C398.293 205.14 395.511 207.128 394.933 207.326C394.211 207.813 394.641 207.514 394.437 207.644L394.275 207.731L393.953 207.904L393.307 208.244C392.877 208.477 392.441 208.674 392.005 208.87C391.135 209.279 390.258 209.601 389.387 209.916C387.649 210.506 385.907 210.944 384.237 211.186C377.503 212.203 371.844 211.298 366.908 210.106C357.089 207.454 349.654 203.395 343.334 199.522C337.037 195.65 332.014 191.774 327.994 188.49C323.981 185.196 321.012 182.414 319.027 180.486C317.058 178.533 316.051 177.453 316.051 177.453L316.371 176.989Z" fill="#FDFDFD"/>
<path d="M325.121 83.2686C324.625 82.6999 323.83 81.9187 322.663 81.0005C320.377 79.2007 316.258 76.7567 310.137 76.2954C304.082 75.8363 296.6 77.5836 289.599 81.4573C282.479 85.2146 275.62 90.774 269.234 97.4914C262.88 104.255 257.053 112.219 251.378 120.805C248.545 125.103 245.761 129.573 243.022 134.176C240.307 138.721 237.545 143.657 235.015 148.113C233.397 150.954 232.399 152.903 231.127 154.915C229.896 156.9 228.601 158.782 227.226 160.509C224.49 163.96 221.418 166.771 218.476 168.377C215.49 169.99 212.937 170.394 210.004 170.159C208.535 170.044 206.93 169.658 205.212 168.989C204.278 168.69 203.666 168.325 202.958 168.039C202.857 167.993 202.812 167.991 202.663 167.911L202.188 167.653L201.238 167.139L200.29 166.625L199.815 166.367C199.966 166.449 199.31 166.093 200.123 166.534L200.032 166.479L199.854 166.369C192.202 161.685 184.85 154.714 178.898 146.886C175.908 142.972 173.222 138.84 170.926 134.628C168.571 130.457 166.596 126.188 165.127 122.034C163.592 117.913 162.548 113.88 162.066 110.437C161.842 108.729 161.774 107.176 161.811 105.913C161.872 104.641 162.025 103.697 162.183 102.95C162.279 102.587 162.379 102.256 162.516 101.934C162.934 101.45 162.039 101.904 163.453 100.76C162.793 101.205 163.288 100.867 163.149 100.959L163.181 100.929L163.243 100.87L163.364 100.744C163.437 100.653 163.535 100.579 163.626 100.5C163.8 100.328 164.015 100.184 164.225 100.022C164.684 99.7389 165.161 99.3963 165.766 99.1337C168.124 97.9985 171.63 97.4937 175.207 97.544C182.488 97.5371 189.982 99.2364 196.505 100.915C203.056 102.694 208.832 104.604 213.57 106.292C217.395 107.671 220.527 108.852 222.946 109.784V105.755C221.276 104.22 219.287 102.459 216.877 100.481C212.857 97.1968 207.834 93.3207 201.537 89.4492C195.217 85.5755 187.783 81.5167 177.963 78.8649C173.028 77.6727 167.368 76.7682 160.634 77.7846C158.965 78.0267 157.222 78.4652 155.484 79.0545C154.611 79.3697 153.736 79.694 152.866 80.1006C152.43 80.2948 151.994 80.4935 151.564 80.7264L150.918 81.0668L150.596 81.2403L150.434 81.3271C150.23 81.4596 150.66 81.1581 149.938 81.6446C149.36 81.8433 146.578 83.8305 145.274 85.073C143.718 86.5074 142.309 88.1268 141.085 89.8558C138.639 93.3207 137.054 97.1671 136.151 100.874C135.204 104.595 134.895 108.208 134.891 111.687C134.913 118.635 136.259 125.049 138.157 131.147C140.149 137.218 142.734 142.976 145.728 148.536C148.803 154.052 152.313 159.337 156.247 164.394C160.182 169.446 164.549 174.263 169.437 178.738C174.302 183.23 179.781 187.294 185.939 190.713L186.917 191.245L187.401 191.485L188.367 191.965L189.333 192.444L189.818 192.684L190.507 192.992C192.442 193.84 194.441 194.696 196.261 195.24C199.961 196.48 204.022 197.348 208.282 197.54C212.517 197.755 216.934 197.344 221.077 196.154C225.227 194.991 229.071 193.164 232.424 190.996C239.144 186.615 243.975 181.134 247.824 175.675C249.744 172.927 251.409 170.143 252.906 167.372C254.399 164.65 255.733 161.673 256.686 159.769C259.191 154.68 261.354 150.21 263.707 145.687C266.023 141.215 268.366 136.907 270.744 132.794C275.493 124.564 280.401 117.155 285.074 110.622C289.713 104.067 294.172 98.3708 298.523 94.0128C302.908 89.6959 307.102 86.6787 311.101 85.21C315.073 83.6066 318.821 83.6409 321.452 83.883C324.079 84.1891 325.584 84.5774 325.584 84.5774L325.886 84.0909C325.877 84.0954 325.621 83.8145 325.121 83.2686Z" fill="#FDFDFD"/>
</g>
<path d="M786.502 371.13C780.253 371.13 773.327 372.066 765.722 373.934C758.118 375.802 752.123 377.965 747.742 380.404V406.077C758.699 398.237 770.255 394.317 782.416 394.317C794.503 394.317 800.549 400.354 800.549 412.441L772.852 416.43C749.402 419.737 737.684 432.109 737.684 453.53C737.684 463.671 740.52 471.778 746.201 477.856C751.883 483.934 759.667 486.974 769.564 486.974C782.979 486.974 793.106 480.794 799.949 468.421H800.351V484.28H830.137V418.27C830.132 386.837 815.592 371.13 786.502 371.13ZM800.544 439.414C800.544 446.17 798.686 451.764 794.969 456.187C791.243 460.609 786.428 462.818 780.521 462.818C776.269 462.818 772.898 461.582 770.408 459.096C767.917 456.62 766.668 453.433 766.668 449.555C766.668 440.996 771.782 436.006 782.015 434.563L800.544 431.966V439.414Z" fill="white"/>
<path d="M1244.56 373.925H1210.11V485.558H1244.56V373.925Z" fill="white"/>
<path d="M1227.55 356.263C1233.44 356.263 1238.22 354.589 1241.89 351.245C1245.55 347.902 1247.39 343.618 1247.39 338.379C1247.39 333.218 1245.55 329.003 1241.89 325.734C1238.21 322.464 1233.44 320.827 1227.55 320.827C1221.73 320.827 1216.98 322.464 1213.27 325.734C1209.56 329.003 1207.71 333.218 1207.71 338.379C1207.71 343.396 1209.56 347.63 1213.27 351.079C1216.98 354.533 1221.73 356.263 1227.55 356.263Z" fill="white"/>
<path d="M1097.81 446.267V402.402H1117.96V377.711H1097.81V344.757L1063.89 349.682V377.711H1046.02V402.402H1063.89V452.091C1063.89 476.607 1075.88 488.86 1099.85 488.86C1109.97 488.86 1117.55 487.555 1122.57 484.94V460.143C1118.76 462.195 1115.07 463.215 1111.48 463.215C1102.37 463.219 1097.81 457.565 1097.81 446.267Z" fill="white"/>
<path d="M1171.59 446.267V402.402H1191.75V377.711H1171.59V344.757L1137.68 349.682V377.711H1119.81V402.402H1137.68V452.091C1137.68 476.607 1149.67 488.86 1173.64 488.86C1183.75 488.86 1191.34 487.555 1196.36 484.94V460.143C1192.55 462.195 1188.86 463.215 1185.27 463.215C1176.15 463.219 1171.59 457.565 1171.59 446.267Z" fill="white"/>
<path d="M667.481 327.657H612.317V483.99H647.531V430.126H664.322C683.22 430.126 698.319 425.28 709.617 415.581C720.915 405.874 726.569 393.174 726.569 377.471C726.565 344.263 706.873 327.657 667.481 327.657ZM661.37 403.421H647.526V354.695H661.37C680.121 354.695 689.501 362.719 689.501 378.79C689.501 395.207 680.126 403.421 661.37 403.421Z" fill="white"/>
<path d="M882.133 318.715H847.679V483.99H882.133V318.715Z" fill="white"/>
<path d="M931.32 318.715H896.867V483.99H931.32V318.715Z" fill="white"/>
<path d="M987.131 371.781C971.47 371.781 959.042 376.996 949.847 387.428C940.656 397.85 936.063 412.298 936.063 430.758C936.063 448.637 940.494 462.786 949.349 473.217C958.212 483.649 970.387 488.864 985.863 488.864C1001.58 488.864 1013.97 483.487 1023.01 472.733C1032.04 461.979 1036.57 447.332 1036.57 428.798C1036.57 411.639 1032.18 397.85 1023.41 387.428C1014.64 376.996 1002.55 371.781 987.131 371.781ZM993.489 462.481C979.096 462.481 965.176 451.764 965.176 430.316C965.176 420.073 967.048 412.15 970.802 406.557C974.551 400.953 979.813 398.164 986.587 398.164C1000.43 398.164 1007.36 408.595 1007.36 429.453C1007.36 451.464 1007.22 462.481 993.489 462.481Z" fill="white"/>
<path d="M1039.75 177.941C1025.93 177.941 1015.41 184.619 1008.17 197.974H1007.79V180.62H977.461V290.307H1007.79V227.742C1007.79 220.824 1009.48 215.106 1012.88 210.61C1016.27 206.104 1020.59 203.858 1025.84 203.858C1036.71 203.858 1042.15 212.357 1042.15 229.351V290.303H1072.39V223.144C1072.39 193.007 1061.5 177.941 1039.75 177.941Z" fill="white"/>
<path d="M673.935 242.337C672.4 248.157 671.408 253.497 670.961 258.367H670.38C670.066 253.857 669.134 248.665 667.603 242.78L638.942 133.974H605.601L652.367 290.307H687.443L734.785 133.974H702.393L673.935 242.337Z" fill="white"/>
<path d="M778.651 180.242H744.202V291.875H778.651V180.242Z" fill="white"/>
<path d="M761.643 127.144C755.823 127.144 751.069 128.782 747.361 132.051C743.653 135.321 741.799 139.536 741.799 144.696C741.799 149.714 743.653 153.947 747.361 157.396C751.069 160.846 755.823 162.575 761.643 162.575C767.527 162.575 772.31 160.901 775.976 157.558C779.642 154.214 781.482 149.93 781.482 144.692C781.482 139.531 779.647 135.316 775.976 132.047C772.305 128.777 767.527 127.144 761.643 127.144Z" fill="white"/>
<path d="M924.271 178.093C909.952 178.093 897.874 183.507 888.061 194.335C878.247 205.163 873.336 219.847 873.336 238.381C873.336 256.26 877.878 270.191 886.968 280.18C896.057 290.178 908.818 295.177 925.267 295.177C940.329 295.177 952.568 292.41 961.98 286.89V262.034C953.485 267.849 943.64 270.749 932.434 270.749C914.859 270.749 905.539 262.647 904.473 246.442H970.936V231.938C970.936 215.369 966.873 202.249 958.743 192.588C950.617 182.931 939.134 178.093 924.271 178.093ZM904.275 225.298C905.068 218.472 907.31 212.759 910.994 208.184C914.674 203.605 919.037 201.313 924.077 201.313C935.883 201.313 941.786 209.309 941.786 225.298H904.275Z" fill="white"/>
<path d="M1207.88 178.093C1193.56 178.093 1181.49 183.507 1171.67 194.335C1161.86 205.163 1156.95 219.847 1156.95 238.381C1156.95 256.26 1161.49 270.191 1170.58 280.18C1179.67 290.178 1192.43 295.177 1208.88 295.177C1223.94 295.177 1236.18 292.41 1245.59 286.89V262.034C1237.1 267.849 1227.25 270.749 1216.05 270.749C1198.47 270.749 1189.15 262.647 1188.09 246.442H1254.55V231.938C1254.55 215.369 1250.49 202.249 1242.36 192.588C1234.23 182.931 1222.75 178.093 1207.88 178.093ZM1187.89 225.298C1188.68 218.472 1190.92 212.759 1194.61 208.184C1198.29 203.605 1202.65 201.313 1207.69 201.313C1219.5 201.313 1225.4 209.309 1225.4 225.298H1187.89Z" fill="white"/>
<path d="M1124.17 252.584V208.719H1144.32V184.028H1124.17V151.074L1090.26 155.999V184.028H1072.38V208.719H1090.26V258.409C1090.26 282.924 1102.24 295.177 1126.21 295.177C1136.33 295.177 1143.91 293.872 1148.93 291.257V266.461C1145.12 268.513 1141.44 269.532 1137.84 269.532C1128.73 269.537 1124.17 263.883 1124.17 252.584Z" fill="white"/>
<path d="M826.736 235.383C826.736 220.225 837.97 207.94 851.827 207.94C856.928 207.94 861.673 209.614 865.63 212.477V179.089C861.272 178.439 856.264 178.093 850.522 178.093C831.481 178.093 816.272 183.443 804.895 194.146C793.518 204.845 787.837 219.482 787.837 238.044C787.837 254.12 793.14 267.24 803.752 277.409C814.363 287.586 828.244 292.668 845.394 292.668C853.096 292.668 859.824 292.046 865.63 290.833V258.289C861.673 261.148 856.928 262.822 851.827 262.822C837.97 262.817 826.736 250.532 826.736 235.383Z" fill="white"/>
<path d="M658.481 68.4244C656.525 66.4582 654.179 64.6952 651.444 63.1355C648.709 61.5708 645.625 60.0943 642.191 58.706C639.675 57.7021 637.421 56.73 635.423 55.7848C633.426 54.8397 631.727 53.8749 630.334 52.8906C628.936 51.9062 627.859 50.868 627.101 49.7686C626.34 48.6692 625.962 47.4229 625.962 46.0345C625.962 44.7613 626.299 43.6153 626.98 42.5943C627.659 41.5707 628.615 40.6941 629.854 39.962C631.093 39.2299 632.609 38.6618 634.406 38.2553C636.202 37.8513 638.199 37.6481 640.394 37.6481C641.991 37.6481 643.677 37.7632 645.455 37.9982C647.229 38.2284 649.018 38.581 650.814 39.0658C652.611 39.5531 654.356 40.1604 656.055 40.8925C657.751 41.6222 659.319 42.4743 660.759 43.4366V26.1373C657.844 25.0599 654.659 24.2567 651.208 23.7352C647.753 23.2136 643.79 22.9565 639.32 22.9565C634.768 22.9565 630.458 23.4267 626.384 24.3718C622.313 25.317 618.727 26.7959 615.632 28.7989C612.54 30.8043 610.093 33.3606 608.297 36.4654C606.498 39.5702 605.601 43.2823 605.601 47.6041C605.601 53.1207 607.248 57.8245 610.541 61.7226C613.836 65.6184 618.835 68.9166 625.541 71.6174C628.178 72.6605 630.63 73.6791 632.907 74.683C635.182 75.687 637.148 76.7276 638.806 77.805C640.461 78.8848 641.769 80.0626 642.728 81.3334C643.687 82.6042 644.165 84.0538 644.165 85.6723C644.165 86.8672 643.864 87.9789 643.268 88.9975C642.669 90.021 641.762 90.9074 640.541 91.6616C639.323 92.4133 637.806 93.0009 635.989 93.427C634.172 93.8531 632.046 94.0636 629.612 94.0636C625.459 94.0636 621.346 93.3609 617.275 91.9505C613.203 90.545 609.428 88.4294 605.955 85.616V104.132C609.068 105.677 612.754 106.831 617.005 107.604C621.256 108.373 625.739 108.763 630.45 108.763C635.041 108.763 639.402 108.336 643.535 107.487C647.666 106.64 651.292 105.244 654.405 103.297C657.518 101.351 659.982 98.8017 661.8 95.6601C663.617 92.5137 664.524 88.6253 664.524 83.9999C664.524 80.6429 664.005 77.7021 662.967 75.1752C661.936 72.6434 660.437 70.3956 658.481 68.4244Z" fill="white"/>
<path d="M694.36 48.8308C690.877 48.8308 687.017 49.3279 682.781 50.3196C678.542 51.3112 675.201 52.4596 672.757 53.7549V67.3862C678.864 63.2236 685.305 61.1423 692.083 61.1423C698.819 61.1423 702.189 64.3475 702.189 70.7653L686.752 72.8833C673.682 74.639 667.151 81.2085 667.151 92.5822C667.151 97.9667 668.732 102.271 671.898 105.499C675.062 108.726 679.401 110.339 684.919 110.339C692.396 110.339 698.04 107.058 701.855 100.489H702.078V108.909H718.68V73.8603C718.677 57.1707 710.571 48.8308 694.36 48.8308ZM702.186 85.0871C702.186 88.6743 701.151 91.6444 699.079 93.9926C697.002 96.3408 694.319 97.5137 691.026 97.5137C688.656 97.5137 686.778 96.8575 685.39 95.5377C684.002 94.2228 683.308 92.5308 683.308 90.4716C683.308 85.927 686.158 83.2776 691.862 82.5112L702.189 81.1326L702.186 85.0871Z" fill="white"/>
<path d="M762.177 49.0928C754.473 49.0928 748.608 52.6384 744.575 59.7295H744.362V50.5154H727.457V108.755H744.362V75.5351C744.362 71.8623 745.305 68.826 747.197 66.4386C749.086 64.0464 751.494 62.8539 754.422 62.8539C760.48 62.8539 763.513 67.3666 763.513 76.3897V108.753H780.366V73.0939C780.364 57.0924 774.298 49.0928 762.177 49.0928Z" fill="white"/>
<path d="M545.091 474.987L545.091 448.854L538.603 448.854L538.603 474.987L517.294 474.987L517.294 446.736L510.762 446.736L510.762 483.463L572.377 483.463L572.377 474.987L545.091 474.987Z" fill="white"/>
<path d="M573.41 416.768C573.41 409.572 570.746 404.259 565.419 400.825L565.419 400.622L572.381 400.622L572.381 392.349L528.382 392.349L528.382 400.622L553.732 400.622C557.827 400.622 561.141 401.926 563.679 404.533C566.211 407.14 567.48 410.462 567.48 414.495C567.48 422.837 562.84 427.005 553.559 427.005L528.379 427.005L528.379 435.227L554.676 435.227C567.165 435.231 573.41 429.076 573.41 416.768Z" fill="white"/>
<path d="M547.285 367.376C543.247 367.376 539.9 366.021 537.249 363.315C534.603 360.609 533.276 357.187 533.276 353.05C533.276 345.043 537.947 341.045 547.285 341.045L572.377 341.045L572.377 332.771L545.481 332.771C539.608 332.771 535.117 334.266 532.01 337.258C528.903 340.254 527.35 344.578 527.35 350.229C527.35 357.624 530.128 363.275 535.686 367.178L535.686 367.38L528.379 367.38L528.379 375.65L572.377 375.65L572.377 367.376L547.285 367.376Z" fill="white"/>
<path d="M564.901 281.559L564.901 281.357L572.377 281.357L572.377 273.083L507.239 273.083L507.239 281.357L534.481 281.357L534.481 281.559C529.726 284.79 527.35 289.952 527.35 297.05C527.35 304.215 529.54 309.945 533.923 314.249C538.305 318.557 544.137 320.707 551.41 320.707C558.2 320.707 563.564 318.767 567.5 314.881C571.44 310.994 573.41 305.808 573.41 299.315C573.41 291.315 570.573 285.394 564.901 281.559ZM567.48 296.895C567.48 301.572 566.011 305.296 563.077 308.073C560.139 310.847 556.135 312.234 551.065 312.234C545.508 312.234 541.152 310.792 538.004 307.895C534.853 305.002 533.279 301.032 533.279 295.989C533.279 291.753 534.511 288.255 536.975 285.494C539.439 282.74 542.445 281.357 545.998 281.357L552.487 281.357C556.812 281.357 560.393 282.795 563.229 285.672C566.065 288.55 567.48 292.289 567.48 296.895Z" fill="white"/>
<path d="M573.41 243.72C573.41 236.725 570.776 231.428 565.503 227.832L565.503 227.629L572.377 227.629L572.377 219.355L543.761 219.355C532.819 219.355 527.346 225.424 527.346 237.564C527.346 244.193 528.721 250.046 531.472 255.121L538.691 255.121C535.083 250.11 533.276 244.495 533.276 238.271C533.276 231.178 537.013 227.629 544.489 227.629L546.337 243.112C547.681 254.481 552.47 260.164 560.687 260.164C564.525 260.164 567.605 258.713 569.924 255.8C572.242 252.887 573.41 248.866 573.41 243.72ZM554.006 248.766C552.849 246.819 552.04 243.922 551.579 240.087L550.117 227.629L554.5 227.629C558.25 227.629 561.354 228.964 563.801 231.639C566.255 234.313 567.477 237.699 567.477 241.804C567.477 244.8 566.796 247.197 565.432 248.997C564.075 250.793 562.319 251.695 560.169 251.695C557.221 251.691 555.17 250.718 554.006 248.766Z" fill="white"/>
<path d="M570.357 168.549L563.655 168.549C566.204 172.519 567.48 176.755 567.48 181.261C567.48 186.61 565.991 190.874 563.012 194.053C560.034 197.233 555.966 198.818 550.811 198.818C545.569 198.818 541.338 197.129 538.113 193.751C534.894 190.37 533.279 186.042 533.279 180.757C533.279 176.385 534.427 172.28 536.718 168.445L529.496 168.445C528.064 171.911 527.346 175.912 527.346 180.451C527.346 188.593 529.543 195.102 533.943 199.978C538.339 204.855 544.161 207.291 551.407 207.291C557.909 207.291 563.198 205.033 567.284 200.507C571.362 195.981 573.406 190.036 573.406 182.672C573.41 177.228 572.391 172.519 570.357 168.549Z" fill="white"/>
<path d="M528.379 147.765L528.379 156.039L572.377 156.039L572.377 147.765L528.379 147.765Z" fill="white"/>
<path d="M517.206 151.803C517.206 150.288 516.763 149.005 515.873 147.944C514.983 146.883 513.91 146.354 512.651 146.354C511.331 146.354 510.238 146.887 509.365 147.944C508.488 149.005 508.051 150.288 508.051 151.803C508.051 153.285 508.488 154.545 509.365 155.59C510.238 156.631 511.331 157.151 512.651 157.151C513.971 157.151 515.057 156.631 515.917 155.59C516.777 154.545 517.206 153.285 517.206 151.803Z" fill="white"/>
<path d="M573.41 109.421C573.41 101.584 571.298 95.3409 567.07 90.6795C562.847 86.018 557.225 83.6893 550.209 83.6893C543.047 83.6893 537.446 85.8551 533.408 90.1747C529.37 94.4944 527.35 100.511 527.35 108.208C527.35 116.28 529.425 122.693 533.581 127.434C537.737 132.175 543.507 134.544 550.896 134.544C557.685 134.544 563.134 132.271 567.243 127.709C571.352 123.154 573.41 117.058 573.41 109.421ZM537.896 121.43C534.816 118.338 533.276 114.134 533.276 108.816C533.276 103.468 534.765 99.3585 537.744 96.4814C540.722 93.6043 544.963 92.1657 550.463 92.1657C555.905 92.1657 560.102 93.6043 563.053 96.4814C566.004 99.3585 567.48 103.468 567.48 108.816C567.48 114.062 565.977 118.255 562.968 121.382C559.96 124.51 555.847 126.071 550.635 126.071C545.223 126.071 540.976 124.525 537.896 121.43Z" fill="white"/>
<path d="M505.95 96.7079L505.95 105.085L520.043 116.339L520.043 109.925L505.95 96.7079Z" fill="white"/>
<path d="M527.346 45.0468C527.346 52.4462 530.125 58.0972 535.682 61.9996L535.682 62.2022L528.379 62.2022L528.379 70.4759L572.377 70.4759L572.377 62.2022L547.285 62.2022C543.247 62.2022 539.9 60.8511 537.249 58.1449C534.603 55.4346 533.276 52.0131 533.276 47.8762C533.276 39.8727 537.947 35.8709 547.285 35.8709L572.377 35.8709L572.377 27.5973L545.481 27.5973C539.608 27.5973 535.117 29.0954 532.01 32.0917C528.9 35.0762 527.346 39.3958 527.346 45.0468Z" fill="white"/>
<defs>
<clipPath id="clip0_49_4">
<rect width="439.681" height="466.087" fill="white" transform="translate(31.6858 22.9565)"/>
</clipPath>
</defs>
</svg>
